<svg fill="#000000" height="24px" width="24px" version="1.1" id="Layer_1" xmlns="http://www.w3.org/2000/svg" xmlns:xlink="http://www.w3.org/1999/xlink" 
	 viewBox="0 0 512 512" xml:space="preserve">
<path d="M495.304,235.095H477.3V131.173c0-21.481-17.476-38.957-38.957-38.957H333.989V51.011c0-9.22-7.475-16.696-16.696-16.696
	H194.708c-9.22,0-16.696,7.475-16.696,16.696v41.206H73.657c-21.481,0-38.957,17.476-38.957,38.957v103.922H16.696
	C7.475,235.095,0,242.57,0,251.79v66.32c0,9.22,7.475,16.696,16.696,16.696H34.7v103.923c0,21.481,17.476,38.957,38.957,38.957
	h364.685c21.481,0,38.957-17.476,38.957-38.957V334.806h18.006c9.22,0,16.696-7.475,16.696-16.696v-66.32
	C512,242.57,504.525,235.095,495.304,235.095z M211.404,67.706h89.194v24.51h-89.194L211.404,67.706L211.404,67.706z
	 M68.092,131.173c0-3.069,2.497-5.565,5.565-5.565h364.685c3.069,0,5.565,2.497,5.565,5.565v103.922c-5.864,0-364.744,0-375.816,0
	C68.092,235.095,68.092,131.173,68.092,131.173z M351.055,301.414h-17.067v-32.928h17.067V301.414z M211.404,301.414v-32.928h89.194
	v32.928H211.404z M160.945,268.486h17.067v32.928h-17.067V268.486z M33.391,268.486c11.871,0,84.166,0,94.162,0v32.928
	c-10,0-82.291,0-94.162,0V268.486z M443.908,438.728c0,3.069-2.497,5.565-5.565,5.565H73.657c-3.069,0-5.565-2.497-5.565-5.565
	V334.806c5.864,0,364.744,0,375.816,0v103.923H443.908z M478.609,301.414c-11.871,0-84.166,0-94.162,0v-32.928
	c10,0,82.291,0,94.162,0V301.414z"/>
<path d="M126.217,148.738c-9.22,0-16.696,7.475-16.696,16.696v29.835c0,9.22,7.475,16.696,16.696,16.696s16.696-7.475,16.696-16.696
	v-29.835C142.913,156.213,135.438,148.738,126.217,148.738z"/>
<path d="M212.739,211.965c9.22,0,16.696-7.475,16.696-16.696v-29.835c0-9.22-7.475-16.696-16.696-16.696
	c-9.22,0-16.696,7.475-16.696,16.696v29.835C196.044,204.489,203.519,211.965,212.739,211.965z"/>
<path d="M299.261,211.965c9.22,0,16.696-7.475,16.696-16.696v-29.835c0-9.22-7.475-16.696-16.696-16.696
	s-16.696,7.475-16.696,16.696v29.835C282.565,204.489,290.04,211.965,299.261,211.965z"/>
<path d="M385.783,211.965c9.22,0,16.696-7.475,16.696-16.696v-29.835c0-9.22-7.475-16.696-16.696-16.696
	c-9.22,0-16.696,7.475-16.696,16.696v29.835C369.087,204.489,376.561,211.965,385.783,211.965z"/>
</svg>